<?xml version="1.0" standalone="no"?>
<!DOCTYPE svg PUBLIC "-//W3C//DTD SVG 20010904//EN"
 "http://www.w3.org/TR/2001/REC-SVG-20010904/DTD/svg10.dtd">
<svg version="1.0" xmlns="http://www.w3.org/2000/svg"
 width="700.000000pt" height="700.000000pt" viewBox="0 0 700.000000 700.000000"
 preserveAspectRatio="xMidYMid meet">
<metadata>
Created by potrace 1.11, written by Peter Selinger 2001-2013
</metadata>
<g transform="translate(0.000000,700.000000) scale(0.100000,-0.100000)"
fill="#000000" stroke="none">
<path d="M3298 6996 c-1 -2 -41 -6 -88 -10 -100 -7 -225 -22 -295 -36 -27 -5
-61 -12 -75 -14 -428 -78 -858 -252 -1250 -504 -81 -52 -319 -227 -330 -243
-3 -3 -25 -23 -50 -44 -84 -69 -229 -214 -365 -365 -166 -184 -381 -517 -509
-785 -172 -361 -287 -787 -324 -1200 -9 -106 -8 -511 1 -605 19 -183 44 -330
83 -500 23 -100 85 -313 103 -355 5 -11 14 -36 21 -55 15 -44 18 -50 79 -192
293 -674 817 -1254 1474 -1632 56 -32 323 -166 332 -166 3 0 24 -9 48 -19 222
-99 633 -211 862 -236 33 -4 67 -8 75 -10 67 -18 535 -26 695 -12 1049 90
1974 621 2582 1482 198 281 366 622 472 960 58 187 111 422 126 565 4 30 8 61
11 68 24 76 24 781 -1 822 -1 3 -6 32 -9 65 -3 33 -8 69 -10 80 -2 11 -11 61
-21 110 -98 527 -337 1052 -671 1480 -228 293 -527 571 -819 765 -88 59 -310
186 -408 234 -350 171 -747 287 -1127 331 -30 4 -68 8 -85 11 -35 5 -521 14
-527 10z m407 -201 c422 -22 849 -134 1245 -328 1018 -497 1717 -1495 1835
-2617 17 -169 22 -415 10 -575 -7 -97 -34 -325 -40 -335 -2 -3 -6 -26 -10 -50
-18 -131 -102 -426 -167 -590 -91 -230 -216 -467 -350 -663 -18 -26 -86 -120
-96 -132 -4 -5 -34 -43 -66 -83 -359 -452 -881 -825 -1440 -1027 -224 -81
-517 -152 -706 -170 -35 -4 -67 -8 -70 -10 -7 -5 -288 -18 -367 -18 -67 1
-268 11 -318 17 -16 2 -59 7 -95 11 -36 4 -81 10 -100 15 -19 5 -55 12 -80 15
-131 18 -419 101 -599 172 -677 267 -1245 748 -1624 1375 -83 138 -191 358
-242 493 -21 55 -41 109 -46 120 -18 43 -80 258 -94 325 -2 8 -8 35 -13 60 -6
25 -14 65 -17 90 -4 24 -8 47 -10 50 -7 11 -34 238 -40 335 -11 170 -4 551 10
575 2 3 6 36 10 74 3 38 8 72 9 75 2 3 7 29 10 56 4 28 21 111 38 185 256
1128 1100 2048 2203 2403 101 33 234 69 295 81 203 39 231 44 300 52 30 3 64
8 75 10 10 2 85 7 165 10 80 4 146 7 147 8 3 2 97 -1 238 -9z"/>
<path d="M3437 6684 c-1 -1 -56 -4 -122 -8 -66 -4 -133 -8 -150 -10 -16 -2
-57 -7 -90 -11 -33 -3 -67 -8 -75 -10 -8 -3 -31 -7 -50 -10 -127 -22 -269 -56
-400 -97 -98 -30 -234 -80 -245 -90 -5 -4 -15 -8 -21 -8 -7 0 -66 -25 -131
-56 -652 -307 -1179 -820 -1500 -1459 -155 -310 -279 -718 -309 -1018 -3 -34
-8 -64 -9 -67 -5 -9 -18 -237 -18 -325 0 -83 12 -319 18 -358 2 -12 6 -42 9
-67 14 -125 43 -271 90 -450 15 -56 75 -231 106 -310 269 -675 732 -1210 1375
-1591 123 -72 319 -164 475 -222 457 -170 952 -232 1445 -182 662 68 1310 358
1800 805 345 315 612 688 789 1103 62 146 133 350 161 467 10 43 45 209 50
238 3 17 7 44 10 60 2 15 7 47 10 72 3 25 7 61 10 80 22 173 22 555 -1 691 -2
15 -6 47 -9 70 -90 740 -486 1477 -1065 1979 -41 36 -77 67 -80 70 -3 3 -23
18 -45 35 -22 16 -44 33 -50 38 -100 82 -341 230 -510 312 -194 95 -325 145
-575 219 -61 18 -271 62 -340 71 -89 12 -116 15 -138 20 -37 7 -408 24 -415
19z m323 -208 c41 -4 86 -9 100 -11 14 -2 50 -7 80 -10 30 -4 96 -16 145 -27
50 -10 101 -21 115 -24 50 -9 238 -67 345 -106 560 -205 1069 -603 1420 -1111
117 -169 190 -306 315 -592 61 -137 154 -490 175 -660 4 -27 8 -60 10 -72 25
-155 25 -563 0 -723 -3 -19 -7 -48 -9 -65 -10 -76 -28 -173 -51 -267 -14 -57
-27 -111 -30 -120 -2 -10 -25 -79 -50 -154 -175 -520 -509 -1000 -936 -1345
-155 -125 -202 -158 -344 -244 -241 -145 -476 -247 -735 -318 -171 -48 -258
-66 -435 -91 -184 -26 -566 -26 -735 -1 -14 2 -45 7 -70 10 -25 3 -67 10 -95
15 -27 5 -61 11 -75 14 -14 2 -43 9 -65 14 -22 6 -51 13 -65 16 -53 10 -207
58 -322 101 -259 97 -518 240 -740 407 -157 119 -180 140 -338 299 -330 332
-574 737 -719 1192 -37 115 -90 337 -96 402 -1 6 -4 28 -8 50 -37 214 -42 566
-12 810 58 469 235 937 503 1325 361 523 888 926 1482 1131 183 64 375 109
615 144 17 2 66 7 110 11 44 3 81 7 82 8 5 5 367 -2 433 -8z"/>
<path d="M3299 6356 c-2 -2 -35 -6 -74 -10 -120 -11 -157 -16 -260 -36 -55
-11 -111 -22 -125 -25 -46 -9 -175 -48 -290 -87 -781 -270 -1433 -905 -1723
-1678 -40 -106 -104 -313 -112 -363 -3 -17 -10 -48 -15 -67 -4 -19 -14 -69
-20 -110 -6 -41 -14 -86 -16 -100 -27 -154 -26 -601 1 -770 21 -125 37 -215
40 -220 2 -4 7 -22 10 -41 8 -49 52 -201 86 -297 142 -405 367 -761 674 -1067
77 -77 176 -169 220 -203 44 -35 88 -70 98 -78 38 -31 224 -152 302 -196 89
-50 253 -130 330 -159 28 -11 59 -24 70 -29 42 -18 271 -88 320 -97 11 -2 36
-8 55 -13 19 -5 51 -12 70 -15 19 -3 58 -10 85 -15 59 -11 113 -19 210 -30 73
-8 502 -5 567 4 20 3 56 8 80 11 39 5 111 17 178 29 122 21 436 118 550 169
202 90 332 161 480 260 71 47 182 129 206 152 6 5 34 28 62 50 70 55 284 274
357 365 228 284 376 552 496 898 31 87 93 328 103 397 6 35 10 63 22 128 12
71 19 216 18 417 -1 252 -18 410 -69 625 -167 702 -584 1306 -1185 1716 -155
106 -394 234 -529 283 -283 104 -489 158 -691 182 -30 3 -66 8 -80 10 -33 6
-495 15 -501 10z m416 -200 c50 -4 101 -9 115 -11 14 -2 45 -7 70 -10 25 -4
75 -13 112 -21 37 -7 81 -16 98 -19 59 -10 268 -77 380 -122 385 -153 711
-383 1015 -717 138 -151 307 -411 410 -629 83 -178 175 -457 200 -610 33 -197
33 -198 41 -318 36 -515 -67 -1005 -303 -1449 -293 -552 -793 -998 -1373
-1228 -90 -35 -291 -100 -334 -108 -17 -2 -47 -9 -66 -14 -76 -20 -269 -48
-382 -56 -152 -11 -433 -5 -515 10 -11 2 -44 7 -74 11 -76 9 -258 49 -363 80
-722 210 -1342 743 -1659 1425 -72 155 -157 395 -173 488 -3 15 -7 35 -10 44
-5 15 -7 27 -19 88 -43 220 -58 469 -42 713 4 53 9 107 12 120 3 12 7 40 9 62
46 424 303 999 596 1330 359 406 733 659 1210 816 221 72 408 109 640 125 52
3 96 7 97 8 5 4 227 -2 308 -8z"/>
<path d="M3489 5636 c-2 -2 -56 -6 -119 -10 -113 -6 -131 -8 -240 -27 -119
-20 -197 -41 -328 -85 -664 -227 -1196 -805 -1367 -1484 -46 -186 -65 -340
-66 -529 0 -573 220 -1102 627 -1507 201 -200 459 -373 693 -466 186 -73 316
-108 561 -147 99 -17 433 -10 560 10 520 84 956 323 1305 719 124 140 260 357
341 544 51 118 117 322 129 399 3 18 9 52 15 77 5 25 12 63 15 85 11 69 14
457 5 525 -5 36 -12 81 -14 100 -20 150 -96 397 -175 564 -237 503 -686 913
-1208 1102 -198 72 -438 118 -633 123 -46 1 -87 4 -91 6 -3 3 -8 3 -10 1z"/>
</g>
</svg>
