<?xml version="1.0" encoding="utf-8"?>
<!-- Generator: Adobe Illustrator 21.1.0, SVG Export Plug-In . SVG Version: 6.00 Build 0)  -->
<svg version="1.1" id="Layer_1" xmlns="http://www.w3.org/2000/svg" xmlns:xlink="http://www.w3.org/1999/xlink" x="0px" y="0px"
	 viewBox="0 0 309.7 62.3" style="enable-background:new 0 0 309.7 62.3;" xml:space="preserve">
<style type="text/css">
	.st0{fill:#231F20;}
</style>
<g>
	<path class="st0" d="M63,62.3H49.7l-5.9-14.6H19.2l-5.9,14.6H0L25,0h12.9L63,62.3z M38.8,35.3l-7-17.4l-7.6,17.4H38.8z"/>
	<path class="st0" d="M121.9,62.3h-12.1v-25H84.1v25H71.8V0.2h12.2v24.7h25.7V0.2h12.1V62.3z"/>
	<path class="st0" d="M180.7,62.3h-46.2V0h12.2v49.9h33.9V62.3z"/>
	<path class="st0" d="M239.2,62.3H193V0h45.3v12.4h-33.1v12.8H224v12.4h-18.7v12.3h33.9V62.3z"/>
	<path class="st0" d="M309.7,62.3h-12.2V28.6l-16.5,33.8l-17-33.8v33.8h-12.2V0h12.2l17,34.2L297.4,0h12.2V62.3z"/>
</g>
</svg>
