<?xml version="1.0" encoding="utf-8"?>
<!-- Generator: Adobe Illustrator 24.1.2, SVG Export Plug-In . SVG Version: 6.00 Build 0)  -->
<svg version="1.1" id="Layer_1" xmlns="http://www.w3.org/2000/svg" xmlns:xlink="http://www.w3.org/1999/xlink" x="0px" y="0px"
	 width="104px" height="90px" viewBox="0 0 104 90" style="enable-background:new 0 0 104 90;" xml:space="preserve">
<style type="text/css">
	.st0{fill:#243B7B;}
	.st1{fill:#F7F9F9;}
</style>
<g>
	<g>
		<polygon class="st0" points="26,90 0,45 26,0 78,0 104,45 78,90 		"/>
		<circle class="st1" cx="52" cy="8.2" r="2.7"/>
		<g>
			<path class="st1" d="M14.5,36v6.8H13V36H14.5z"/>
			<path class="st1" d="M17.3,36l2.9,4.6l0,0V36h1.4v6.8h-1.5l-2.8-4.6l0,0v4.6h-1.4V36H17.3z"/>
			<path class="st1" d="M25.8,36c0.4,0,0.9,0.1,1.2,0.2c0.4,0.1,0.7,0.4,1,0.6c0.3,0.3,0.5,0.6,0.7,1.1c0.2,0.4,0.2,0.9,0.2,1.5
				c0,0.5-0.1,1-0.2,1.4s-0.3,0.8-0.6,1.1c-0.3,0.3-0.6,0.5-1,0.7s-0.8,0.3-1.4,0.3h-3v-6.8L25.8,36z M25.7,41.6
				c0.2,0,0.4,0,0.6-0.1s0.4-0.2,0.5-0.3c0.2-0.2,0.3-0.4,0.4-0.6c0.1-0.3,0.1-0.6,0.1-1c0-0.3,0-0.7-0.1-0.9
				c-0.1-0.3-0.2-0.5-0.3-0.7c-0.2-0.2-0.4-0.3-0.6-0.5c-0.3-0.1-0.6-0.2-0.9-0.2h-1.1v4.3H25.7z"/>
			<path class="st1" d="M35,42.3c-0.5,0.4-1.2,0.7-2.1,0.7c-0.9,0-1.6-0.2-2.2-0.7c-0.5-0.4-0.8-1.1-0.8-2.1v-4.3h1.5v4.3
				c0,0.2,0,0.4,0,0.5c0,0.2,0.1,0.3,0.2,0.5c0.1,0.1,0.2,0.2,0.4,0.3s0.4,0.1,0.7,0.1c0.5,0,0.9-0.1,1.1-0.4
				c0.2-0.2,0.3-0.6,0.3-1.1v-4.3h1.5v4.3C35.8,41.2,35.5,41.9,35,42.3z"/>
			<path class="st1" d="M38.3,41.2c0.1,0.2,0.2,0.3,0.3,0.4c0.1,0.1,0.3,0.2,0.5,0.2s0.4,0.1,0.6,0.1c0.1,0,0.3,0,0.4,0
				c0.2,0,0.3-0.1,0.4-0.1c0.1-0.1,0.2-0.2,0.3-0.3s0.1-0.3,0.1-0.4c0-0.2-0.1-0.3-0.2-0.5c-0.1-0.1-0.3-0.2-0.5-0.3
				s-0.4-0.1-0.7-0.2C39.3,40,39,40,38.8,39.9c-0.3-0.1-0.5-0.1-0.7-0.2c-0.2-0.1-0.5-0.2-0.7-0.4c-0.2-0.1-0.3-0.3-0.5-0.6
				s-0.2-0.5-0.2-0.8c0-0.4,0.1-0.7,0.2-0.9c0.1-0.3,0.3-0.5,0.6-0.6c0.2-0.2,0.5-0.3,0.8-0.4c0.3-0.1,0.6-0.1,0.9-0.1
				c0.4,0,0.7,0,1,0.1s0.6,0.2,0.9,0.4c0.3,0.2,0.5,0.4,0.6,0.7s0.2,0.6,0.2,1h-1.5c0-0.2-0.1-0.4-0.1-0.5c-0.1-0.1-0.2-0.2-0.3-0.3
				s-0.3-0.1-0.4-0.2c-0.2,0-0.3,0-0.5,0c-0.1,0-0.2,0-0.4,0c-0.1,0-0.2,0.1-0.3,0.1c-0.1,0.1-0.2,0.1-0.2,0.2
				c-0.1,0.1-0.1,0.2-0.1,0.4c0,0.1,0,0.2,0.1,0.3s0.2,0.2,0.3,0.2c0.1,0.1,0.4,0.1,0.6,0.2c0.3,0.1,0.6,0.2,1,0.3
				c0.1,0,0.3,0.1,0.5,0.1c0.2,0.1,0.5,0.2,0.7,0.3s0.4,0.3,0.6,0.6c0.2,0.2,0.2,0.6,0.2,0.9c0,0.3-0.1,0.6-0.2,0.9
				c-0.1,0.3-0.3,0.5-0.5,0.7s-0.5,0.3-0.9,0.5c0,0.2-0.4,0.2-0.9,0.2c-0.4,0-0.7,0-1.1-0.1c-0.4-0.1-0.7-0.2-0.9-0.4
				c-0.3-0.2-0.5-0.5-0.6-0.8c-0.2-0.3-0.2-0.7-0.2-1.1h1.5C38.1,40.8,38.2,41,38.3,41.2z"/>
			<path class="st1" d="M42.8,37.3V36h5.6v1.3h-2.1v5.6h-1.5v-5.6H42.8z"/>
			<path class="st1" d="M52.9,36c0.3,0,0.6,0.1,0.8,0.1c0.2,0.1,0.5,0.2,0.6,0.4c0.2,0.2,0.3,0.4,0.4,0.6c0.1,0.2,0.1,0.5,0.1,0.7
				c0,0.4-0.1,0.8-0.3,1c-0.2,0.3-0.4,0.5-0.8,0.7l0,0c0.2,0.1,0.3,0.1,0.5,0.2c0.1,0.1,0.2,0.2,0.3,0.4s0.1,0.3,0.2,0.5
				c0,0.2,0.1,0.3,0.1,0.5c0,0.1,0,0.2,0,0.4c0,0.1,0,0.3,0,0.5s0,0.3,0.1,0.4c0,0.1,0.1,0.3,0.2,0.3h-1.5c-0.1-0.2-0.1-0.5-0.2-0.8
				c0-0.3,0-0.6-0.1-0.9c-0.1-0.4-0.2-0.6-0.3-0.8C52.8,40,52.6,40,52.2,40h-1.5v2.7h-1.5v-6.8L52.9,36z M52.3,39.1
				c0.3,0,0.6-0.1,0.8-0.2c0.2-0.2,0.3-0.4,0.3-0.7s-0.1-0.6-0.3-0.7c-0.2-0.1-0.4-0.2-0.8-0.2h-1.6v1.9h1.6V39.1z"/>
			<path class="st1" d="M55,36h1.7l1.6,2.7l1.6-2.7h1.7L59,40.2v2.6h-1.5v-2.7L55,36z"/>
			<path class="st1" d="M12.9,49.1c0.2-0.4,0.4-0.8,0.7-1.1s0.6-0.6,1.1-0.8c0.4-0.2,0.9-0.3,1.4-0.3c0.5,0,1,0.1,1.4,0.3
				s0.8,0.4,1.1,0.8c0.3,0.3,0.5,0.7,0.7,1.1c0.2,0.4,0.2,0.9,0.2,1.4s-0.1,1-0.2,1.4c-0.2,0.4-0.4,0.8-0.7,1.1
				c-0.3,0.3-0.6,0.6-1.1,0.8s-1,0.3-1.5,0.3s-1-0.1-1.4-0.3s-0.8-0.4-1.1-0.8c-0.3-0.3-0.5-0.7-0.7-1.1c-0.2-0.4-0.2-0.9-0.2-1.4
				S12.7,49.5,12.9,49.1z M14.3,51.3c0.1,0.3,0.2,0.5,0.3,0.7s0.3,0.4,0.6,0.5c0.2,0.1,0.5,0.2,0.9,0.2c0.3,0,0.6-0.1,0.9-0.2
				c0.2-0.1,0.4-0.3,0.6-0.5c0.1-0.2,0.3-0.5,0.3-0.7C18,51,18,50.7,18,50.5c0-0.3,0-0.6-0.1-0.9c-0.1-0.3-0.2-0.5-0.3-0.8
				c-0.1-0.2-0.3-0.4-0.6-0.5c-0.2-0.1-0.5-0.2-0.9-0.2c-0.3,0-0.6,0.1-0.9,0.2c-0.2,0.1-0.4,0.3-0.6,0.5c-0.1,0.2-0.3,0.5-0.3,0.8
				c-0.1,0.3-0.1,0.6-0.1,0.9C14.2,50.8,14.2,51.1,14.3,51.3z"/>
			<path class="st1" d="M25.2,47v1.3h-3.3v1.6h2.9v1.2h-2.9v2.8h-1.5v-6.8h4.8V47z"/>
			<path class="st1" d="M32.2,47.1l2.6,6.9h-1.6l-0.5-1.5h-2.6L29.6,54h-1.5l2.6-6.8h1.5V47.1z M32.3,51.3l-0.9-2.5l0,0l-0.9,2.5
				H32.3z"/>
			<path class="st1" d="M36.8,47.1v5.6h3.3V54h-4.8v-6.8h1.5V47.1z"/>
			<path class="st1" d="M42.5,47.1v5.6h3.3V54H41v-6.8h1.5V47.1z"/>
			<path class="st1" d="M50.9,47.1l2.9,4.6l0,0v-4.6h1.4v6.8h-1.5l-2.8-4.6l0,0v4.6h-1.4v-6.8H50.9z"/>
			<path class="st1" d="M59.9,47.1l2.6,6.9h-1.6l-0.5-1.5h-2.6L57.3,54h-1.5l2.6-6.8h1.5V47.1z M60,51.3l-0.9-2.5l0,0l-0.9,2.5H60z"
				/>
			<path class="st1" d="M61.6,48.3V47h5.6v1.3h-2.1v5.6h-1.5v-5.6H61.6z"/>
			<path class="st1" d="M69.5,47.1v6.8H68V47L69.5,47.1z"/>
			<path class="st1" d="M70.8,49.1c0.2-0.4,0.4-0.8,0.7-1.1c0.3-0.3,0.6-0.6,1.1-0.8c0.4-0.2,0.9-0.3,1.4-0.3s1,0.1,1.4,0.3
				s0.8,0.4,1.1,0.8c0.3,0.3,0.5,0.7,0.7,1.1c0.2,0.4,0.2,0.9,0.2,1.4s-0.1,1-0.2,1.4c-0.2,0.4-0.4,0.8-0.7,1.1
				c-0.3,0.3-0.6,0.6-1.1,0.8C75,54,74.5,54.1,74,54.1s-1-0.1-1.4-0.3s-0.8-0.4-1.1-0.8c-0.3-0.3-0.5-0.7-0.7-1.1
				c-0.2-0.4-0.2-0.9-0.2-1.4C70.6,50,70.7,49.5,70.8,49.1z M72.2,51.4c0.1,0.3,0.2,0.5,0.3,0.7c0.1,0.2,0.3,0.4,0.6,0.5
				c0.2,0.1,0.5,0.2,0.9,0.2c0.3,0,0.6-0.1,0.9-0.2c0.2-0.1,0.4-0.3,0.6-0.5c0.1-0.2,0.3-0.5,0.3-0.7c0.1-0.3,0.1-0.6,0.1-0.8
				c0-0.3,0-0.6-0.1-0.9c-0.1-0.3-0.2-0.5-0.3-0.8s-0.3-0.4-0.6-0.5c-0.2-0.1-0.5-0.2-0.9-0.2c-0.3,0-0.6,0.1-0.9,0.2
				c-0.2,0.1-0.4,0.3-0.6,0.5c-0.1,0.2-0.3,0.5-0.3,0.8c-0.1,0.3-0.1,0.6-0.1,0.9C72.1,50.8,72.1,51.1,72.2,51.4z"/>
			<path class="st1" d="M79.8,47.1l2.9,4.6l0,0v-4.6h1.4v6.8h-1.5l-2.8-4.6l0,0v4.6h-1.4v-6.8H79.8z"/>
			<path class="st1" d="M86.6,52.2c0.1,0.2,0.2,0.3,0.3,0.4c0.1,0.1,0.3,0.2,0.5,0.2s0.4,0.1,0.6,0.1c0.1,0,0.3,0,0.4,0
				c0.2,0,0.3-0.1,0.4-0.1c0.1-0.1,0.2-0.2,0.3-0.3c0.1-0.1,0.1-0.3,0.1-0.4c0-0.2-0.1-0.3-0.2-0.5s-0.3-0.2-0.5-0.3
				s-0.4-0.1-0.7-0.2c-0.2-0.1-0.5-0.1-0.7-0.2c-0.3-0.1-0.5-0.1-0.7-0.2c-0.2-0.1-0.5-0.2-0.7-0.4c-0.2-0.1-0.3-0.3-0.5-0.6
				c-0.1-0.2-0.2-0.5-0.2-0.8c0-0.4,0.1-0.7,0.2-0.9c0.1-0.3,0.3-0.5,0.6-0.6c0.2-0.2,0.5-0.3,0.8-0.4c0.3-0.1,0.6-0.1,0.9-0.1
				c0.4,0,0.7,0,1,0.1s0.6,0.2,0.9,0.4s0.5,0.4,0.6,0.7s0.2,0.6,0.2,1h-1.5c0-0.2-0.1-0.4-0.1-0.5c-0.1-0.1-0.2-0.2-0.3-0.3
				c-0.1-0.1-0.3-0.1-0.4-0.2c-0.2,0-0.3,0-0.5,0c-0.1,0-0.2,0-0.4,0c-0.1,0-0.2,0.1-0.3,0.1c-0.1,0.1-0.2,0.1-0.2,0.2
				c-0.1,0.1-0.1,0.2-0.1,0.4c0,0.1,0,0.2,0.1,0.3s0.2,0.2,0.3,0.2c0.1,0.1,0.4,0.1,0.6,0.2c0.3,0.1,0.6,0.2,1,0.3
				c0.1,0,0.3,0.1,0.5,0.1c0.2,0.1,0.5,0.2,0.7,0.3s0.4,0.3,0.6,0.6c0.2,0.2,0.2,0.6,0.2,0.9c0,0.3-0.1,0.6-0.2,0.9
				c-0.1,0.3-0.3,0.5-0.5,0.7s-0.5,0.3-0.9,0.5C88.4,53.9,88,54,87.6,54c-0.4,0-0.7,0-1.1-0.1s-0.7-0.2-0.9-0.4
				c-0.3-0.2-0.5-0.4-0.6-0.8c-0.2-0.3-0.2-0.7-0.2-1.1h1.5C86.5,51.9,86.5,52.1,86.6,52.2z"/>
		</g>
	</g>
	<g>
		<path class="st1" d="M91,47.2V47h1.7v0.2H92v1.9h-0.3v-1.9H91z"/>
		<path class="st1" d="M93.3,47l0.7,1.8l0.7-1.8h0.4v2.2h-0.3v-1.8l0,0l-0.7,1.8h-0.2l-0.7-1.8l0,0v1.8h-0.3V47H93.3z"/>
	</g>
</g>
</svg>
