<?xml version="1.0" encoding="utf-8"?>
<!-- Generator: Adobe Illustrator 24.1.2, SVG Export Plug-In . SVG Version: 6.00 Build 0)  -->
<svg version="1.1" id="Layer_1" xmlns="http://www.w3.org/2000/svg" xmlns:xlink="http://www.w3.org/1999/xlink" x="0px" y="0px"
	 width="301.4px" height="13px" viewBox="0 0 301.4 13" style="enable-background:new 0 0 301.4 13;" xml:space="preserve">
<g>
	<polygon points="0,0.1 0,12.8 12.6,12.8 12.6,9.6 3.9,9.6 3.9,0.1 	"/>
	<path d="M13.8,4.6c0-3.7,2.1-4.6,5.6-4.6h6.2c3.5,0,5.6,0.9,5.6,4.6v3.8c0,3.7-2.1,4.6-5.6,4.6h-6.2c-3.5,0-5.6-0.9-5.6-4.6V4.6z
		 M17.8,7.2c0,1.8,0.4,2.5,2.2,2.5h5c1.8,0,2.2-0.7,2.2-2.5V5.8c0-1.6-0.4-2.5-2.4-2.5h-4.6c-2,0-2.4,1-2.4,2.5
		C17.8,5.8,17.8,7.2,17.8,7.2z"/>
	<path d="M32.9,8.7h3.9c0,1.4,0.6,1.4,1.7,1.4h4.8c0.8,0,1.7-0.1,1.7-1.1c0-1.1-0.5-1.2-5.5-1.2c-5.8,0-6.5-0.7-6.5-3.8
		C32.9,1.8,33.1,0,38,0h5.4c4.5,0,4.9,1.5,4.9,3.8v0.4h-3.9c0-0.9-0.1-1.3-1.9-1.3h-4.3c-0.9,0-1.5,0.3-1.5,1c0,1.1,0.5,1.1,4.6,1.1
		c6,0,7.5,0.3,7.5,4.1c0,3.4-1.2,4-6.3,4h-4.7c-3.5,0-5-0.7-5-3.4C32.9,9.6,32.9,8.7,32.9,8.7z"/>
	<path d="M63.8,0.1h5.1l7,12.7h-4.3l-1.2-2.2h-7.9l-1.1,2.2H57L63.8,0.1z M63.9,7.8h5l-2.5-4.8L63.9,7.8z"/>
	<polygon points="77.1,0.1 83.2,0.1 90.5,9.4 90.5,9.4 90.5,0.1 94.4,0.1 94.4,12.8 88.4,12.8 81.1,3.6 81,3.6 81,12.8 77.1,12.8 	
		"/>
	<path d="M96.2,4.6c0-3.7,2.1-4.6,5.6-4.6h5.8c4.4,0,5,1.6,5,4.1v0.4h-3.8c0-1.3-0.7-1.4-2-1.4h-4.2c-2,0-2.5,0.5-2.5,2.7v1.6
		c0,2.2,0.5,2.7,2.5,2.7h4.2c1,0,2-0.2,2-1.4V8.2H104V5.5h8.7v3.6c0,3.6-1.9,3.8-6.3,3.8h-4.7c-3.5,0-5.6-0.9-5.6-4.6V4.6z"/>
	<polygon points="114.6,0.1 128.4,0.1 128.4,3.1 118.4,3.1 118.4,5.1 127.9,5.1 127.9,7.8 118.4,7.8 118.4,9.8 128.7,9.8 
		128.7,12.8 114.6,12.8 	"/>
	<polygon points="130.4,0.1 134.3,0.1 134.3,9.6 143,9.6 143,12.8 130.4,12.8 	"/>
	<polygon points="144.4,0.1 158.3,0.1 158.3,3.1 148.3,3.1 148.3,5.1 157.8,5.1 157.8,7.8 148.3,7.8 148.3,9.8 158.5,9.8 
		158.5,12.8 144.4,12.8 	"/>
	<path d="M160,8.7h3.9c0,1.4,0.6,1.4,1.7,1.4h4.8c0.8,0,1.7-0.1,1.7-1.1c0-1.1-0.4-1.2-5.5-1.2c-5.9,0-6.5-0.7-6.5-3.8
		c0-2.3,0.2-4.1,5.1-4.1h5.4c4.5,0,4.9,1.5,4.9,3.8v0.4h-3.9c0-0.9-0.1-1.3-1.9-1.3h-4.3c-0.9,0-1.5,0.3-1.5,1
		c0,1.1,0.5,1.1,4.6,1.1c6.1,0,7.4,0.3,7.4,4.1c0,3.4-1.2,4-6.3,4H165c-3.5,0-5-0.7-5-3.4L160,8.7L160,8.7z"/>
	<path d="M190.9,0.1h5.1l7,12.7h-4.3l-1.2-2.2h-7.9l-1.1,2.2h-4.4L190.9,0.1z M191,7.8h5l-2.5-4.8L191,7.8z"/>
	<path d="M204.2,0.1h10.6c3.7,0,4.6,1.9,4.6,4.3v1.1c0,1.9-0.8,4.1-3.6,4.1h-7.7v3.2h-3.9L204.2,0.1L204.2,0.1z M208.1,6.5h6.1
		c0.9,0,1.3-0.6,1.3-1.3V4.7c0-0.9-0.4-1.3-1.6-1.3h-5.7L208.1,6.5L208.1,6.5z"/>
	<path d="M221.1,0.1h10.6c3.7,0,4.6,1.9,4.6,4.3v1.1c0,1.9-0.8,4.1-3.6,4.1h-7.7v3.2H221L221.1,0.1L221.1,0.1z M224.9,6.5h6.1
		c0.9,0,1.3-0.6,1.3-1.3V4.7c0-0.9-0.4-1.3-1.6-1.3h-5.7L224.9,6.5L224.9,6.5z"/>
	<path d="M242.2,0.1h5.1l7,12.7h-4.3l-1.2-2.2h-7.9l-1.1,2.2h-4.4L242.2,0.1z M242.2,7.8h5l-2.5-4.8L242.2,7.8z"/>
	<polygon points="273,0.1 286.8,0.1 286.8,3.1 276.9,3.1 276.9,5.1 286.3,5.1 286.3,7.8 276.9,7.8 276.9,9.8 287.1,9.8 287.1,12.8 
		273,12.8 	"/>
	<polygon points="288.8,0.1 292.7,0.1 292.7,9.6 301.4,9.6 301.4,12.8 288.8,12.8 	"/>
	<path d="M255.5,0.1h11.8c3,0,3.8,1.5,3.8,3.8v0.8c0,1.7-0.4,2.7-2.2,3.1v0c1.2,0.2,2.1,0.7,2.1,2.8v2.2h-3.9v-1.5
		c0-1.3-0.4-1.8-1.6-1.8h-6.1v3.3h-3.9L255.5,0.1L255.5,0.1z M259.4,6.4h6.4c1,0,1.4-0.4,1.4-1.3V4.6c0-1.1-0.6-1.3-1.8-1.3h-6.1
		V6.4z"/>
</g>
</svg>
