<?xml version="1.0" encoding="utf-8"?>
<!-- Generator: Adobe Illustrator 24.1.2, SVG Export Plug-In . SVG Version: 6.00 Build 0)  -->
<svg version="1.1" id="Layer_1" xmlns="http://www.w3.org/2000/svg" xmlns:xlink="http://www.w3.org/1999/xlink" x="0px" y="0px"
	 width="360px" height="15.5px" viewBox="0 0 360 15.5" style="enable-background:new 0 0 360 15.5;" xml:space="preserve">
<g>
	<polygon points="0,0.2 0,15.3 15.1,15.3 15.1,11.4 4.6,11.4 4.6,0.2 	"/>
	<path d="M16.5,5.5C16.5,1,19,0,23.2,0h7.5c4.2,0,6.7,1,6.7,5.5V10c0,4.4-2.5,5.5-6.7,5.5h-7.5c-4.2,0-6.7-1-6.7-5.5
		C16.5,10,16.5,5.5,16.5,5.5z M21.3,8.6c0,2.2,0.5,3,2.7,3h5.9c2.2,0,2.7-0.8,2.7-3V6.9c0-1.9-0.5-3-2.9-3h-5.4
		c-2.4,0-2.9,1.2-2.9,3V8.6z"/>
	<path d="M39.3,10.4h4.6c0,1.6,0.7,1.7,2,1.7h5.7c1,0,2-0.1,2-1.3c0-1.3-0.5-1.4-6.5-1.4c-7,0-7.8-0.8-7.8-4.6
		c0-2.7,0.3-4.9,6.1-4.9h6.5c5.4,0,5.9,1.8,5.9,4.5V5h-4.6c0-1.1-0.1-1.6-2.3-1.6h-5.1c-1,0-1.8,0.4-1.8,1.2c0,1.3,0.6,1.4,5.5,1.3
		c7.2,0,8.9,0.4,8.9,4.8c0,4.1-1.4,4.8-7.6,4.8h-5.6c-4.2,0-5.9-0.8-5.9-4.1V10.4z"/>
	<path d="M76.2,0.2h6.1l8.3,15.2h-5.2L84,12.6h-9.4l-1.4,2.7H68L76.2,0.2z M76.3,9.4h5.9l-3-5.7L76.3,9.4z"/>
	<polygon points="92.1,0.2 99.3,0.2 108,11.2 108.1,11.2 108.1,0.2 112.7,0.2 112.7,15.3 105.5,15.3 96.8,4.3 96.8,4.3 96.8,15.3 
		92.1,15.3 	"/>
	<path d="M114.9,5.5c0-4.4,2.5-5.5,6.7-5.5h7c5.3,0,6,1.9,6,4.9v0.5H130c0-1.5-0.9-1.7-2.3-1.7h-5c-2.3,0-3,0.6-3,3.2v1.9
		c0,2.6,0.6,3.2,3,3.2h5c1.2,0,2.4-0.2,2.4-1.7V9.8h-5.8V6.6h10.4v4.3c0,4.4-2.3,4.6-7.5,4.6h-5.6c-4.2,0-6.7-1-6.7-5.5V5.5z"/>
	<polygon points="136.8,0.2 153.4,0.2 153.4,3.7 141.5,3.7 141.5,6.1 152.8,6.1 152.8,9.3 141.5,9.3 141.5,11.7 153.7,11.7 
		153.7,15.3 136.8,15.3 	"/>
	<polygon points="155.7,0.2 160.4,0.2 160.4,11.4 170.8,11.4 170.8,15.3 155.7,15.3 	"/>
	<polygon points="172.5,0.2 189,0.2 189,3.7 177.1,3.7 177.1,6.1 188.4,6.1 188.4,9.3 177.1,9.3 177.1,11.7 189.3,11.7 189.3,15.3 
		172.5,15.3 	"/>
	<path d="M191.1,10.4h4.6c0,1.6,0.7,1.7,2,1.7h5.7c1,0,2-0.1,2-1.3c0-1.3-0.5-1.4-6.5-1.4c-7,0-7.8-0.8-7.8-4.6
		c0-2.7,0.2-4.9,6.1-4.9h6.5c5.4,0,5.9,1.8,5.9,4.5V5h-4.6c0-1.1-0.1-1.6-2.3-1.6h-5.1c-1,0-1.8,0.4-1.8,1.2c0,1.3,0.6,1.4,5.5,1.3
		c7.2,0,8.9,0.4,8.9,4.8c0,4.1-1.4,4.8-7.6,4.8H197c-4.2,0-5.9-0.8-5.9-4.1V10.4z"/>
	<path d="M228,0.2h6.1l8.3,15.2h-5.2l-1.4-2.7h-9.4l-1.4,2.7h-5.2L228,0.2z M228.1,9.4h5.9l-3-5.7L228.1,9.4z"/>
	<path d="M243.9,0.2h12.7c4.4,0,5.5,2.2,5.5,5.2v1.3c0,2.3-1,4.9-4.3,4.9h-9.2v3.8h-4.6L243.9,0.2L243.9,0.2z M248.6,7.7h7.2
		c1.1,0,1.5-0.7,1.5-1.6V5.5c0-1-0.5-1.6-1.9-1.6h-6.8L248.6,7.7L248.6,7.7z"/>
	<path d="M264,0.2h12.7c4.4,0,5.5,2.2,5.5,5.2v1.3c0,2.3-1,4.9-4.3,4.9h-9.2v3.8H264L264,0.2L264,0.2z M268.6,7.7h7.2
		c1.1,0,1.5-0.7,1.5-1.6V5.5c0-1-0.5-1.6-1.9-1.6h-6.8V7.7z"/>
	<path d="M289.2,0.2h6.1l8.3,15.2h-5.2l-1.4-2.7h-9.4l-1.4,2.7H281L289.2,0.2z M289.3,9.4h5.9l-3-5.7L289.3,9.4z"/>
	<polygon points="326,0.2 342.6,0.2 342.6,3.7 330.6,3.7 330.6,6.1 341.9,6.1 341.9,9.3 330.6,9.3 330.6,11.7 342.8,11.7 
		342.8,15.3 326,15.3 	"/>
	<polygon points="344.9,0.2 349.6,0.2 349.6,11.4 360,11.4 360,15.3 344.9,15.3 	"/>
	<path d="M305.1,0.2h14c3.6,0,4.5,1.8,4.5,4.5v1c0,2-0.5,3.2-2.6,3.7v0c1.4,0.2,2.5,0.9,2.5,3.4v2.6H319v-1.8c0-1.6-0.5-2.1-1.9-2.1
		h-7.3v3.9h-4.6L305.1,0.2L305.1,0.2z M309.8,7.6h7.7c1.3,0,1.7-0.5,1.7-1.6V5.5c0-1.3-0.7-1.6-2.1-1.6h-7.3V7.6z"/>
</g>
</svg>
