<?xml version="1.0" encoding="utf-8"?>
<!-- Generator: Adobe Illustrator 24.1.2, SVG Export Plug-In . SVG Version: 6.00 Build 0)  -->
<svg version="1.1" id="Layer_1" xmlns="http://www.w3.org/2000/svg" xmlns:xlink="http://www.w3.org/1999/xlink" x="0px" y="0px"
	 width="196.92px" height="39.68px" viewBox="0 0 196.92 39.68" style="enable-background:new 0 0 196.92 39.68;"
	 xml:space="preserve">
<style type="text/css">
	.st0{fill:#231F20;}
</style>
<g>
	<path class="st0" d="M40.06,39.61H31.6l-3.75-9.28H12.21l-3.75,9.28H0L15.9,0h8.2L40.06,39.61z M24.67,22.45l-4.45-11.06
		l-4.83,11.06H24.67z"/>
	<path class="st0" d="M77.51,39.61h-7.69v-15.9H53.47v15.9h-7.82V0.13h7.76v15.71h16.34V0.13h7.69v39.49H77.51z"/>
	<path class="st0" d="M114.9,39.61H85.52V0h7.76v31.73h21.56v7.88H114.9z"/>
	<path class="st0" d="M152.09,39.61h-29.38V0h28.8v7.88h-21.05v8.14h11.95v7.88h-11.89v7.82h21.56L152.09,39.61L152.09,39.61z"/>
	<path class="st0" d="M196.92,39.61h-7.76V18.19l-10.49,21.49l-10.81-21.49v21.49h-7.76V0h7.76l10.81,21.75L189.1,0h7.76v39.61
		H196.92z"/>
</g>
</svg>
