<?xml version="1.0" encoding="utf-8"?>
<!-- Generator: Adobe Illustrator 24.1.2, SVG Export Plug-In . SVG Version: 6.00 Build 0)  -->
<svg version="1.1" id="Layer_1" xmlns="http://www.w3.org/2000/svg" xmlns:xlink="http://www.w3.org/1999/xlink" x="0px" y="0px"
	 width="302.5px" height="28.43px" viewBox="0 0 302.5 28.43" style="enable-background:new 0 0 302.5 28.43;" xml:space="preserve"
	>
<path d="M0,28.43V0h22.76v5.67H5.67v5.67h11.34v5.74H5.67v5.67h17.09v5.67H0z"/>
<path d="M47.41,28.43L35.99,0h6.09l8.19,20.24L58.33,0h6.09L53.08,28.43H47.41z"/>
<path d="M79.2,28.43V0h22.76v5.67H84.87v5.67h11.34v5.74H84.87v5.67h17.09v5.67H79.2z"/>
<path d="M139.56,15.97l4.06,12.46h-5.95l-3.71-11.34h-9.94v11.34h-5.67V0h17.02c2.28-0.03,4.47,0.85,6.09,2.45
	c1.64,1.6,2.53,3.81,2.45,6.09C143.97,11.64,142.29,14.51,139.56,15.97z M124.01,11.34h11.34c0.76,0.01,1.5-0.3,2.03-0.84
	c0.56-0.53,0.86-1.27,0.84-2.03c0-1.59-1.29-2.87-2.87-2.87h-11.34C124.01,5.6,124.01,11.34,124.01,11.34z"/>
<path d="M160.77,28.43V0h5.67v22.76h14.21v5.67H160.77z"/>
<path d="M214.83,22.76h-11.69l-2.31,5.67h-6.09L206.15,0h5.67l11.41,28.43h-6.09L214.83,22.76z M212.52,17.09l-3.57-8.89l-3.57,8.89
	H212.52z"/>
<path d="M262.59,0v28.43h-5.67L242.7,9.52v18.91h-5.67V0h5.67l14.21,18.91V0H262.59z"/>
<path d="M279.74,28.43V0h22.76v5.67h-17.09v5.67h11.34v5.74h-11.34v5.67h17.09v5.67H279.74z"/>
</svg>
