<?xml version="1.0" encoding="utf-8"?>
<!-- Generator: Adobe Illustrator 24.1.2, SVG Export Plug-In . SVG Version: 6.00 Build 0)  -->
<svg version="1.1" id="Layer_1" xmlns="http://www.w3.org/2000/svg" xmlns:xlink="http://www.w3.org/1999/xlink" x="0px" y="0px"
	 width="301.44px" height="12.97px" viewBox="0 0 301.44 12.97" style="enable-background:new 0 0 301.44 12.97;"
	 xml:space="preserve">
<style type="text/css">
	.st0{fill:#2D3237;}
</style>
<g>
	<polygon class="st0" points="0,0.14 0,12.83 12.64,12.83 12.64,9.57 3.89,9.57 3.89,0.14 	"/>
	<path class="st0" d="M13.84,4.59c0-3.72,2.09-4.59,5.59-4.59h6.24c3.51,0,5.59,0.88,5.59,4.59v3.79c0,3.72-2.09,4.59-5.59,4.59
		h-6.24c-3.51,0-5.59-0.88-5.59-4.59C13.84,8.38,13.84,4.59,13.84,4.59z M17.84,7.17c0,1.84,0.39,2.54,2.23,2.54h4.98
		c1.84,0,2.23-0.7,2.23-2.54V5.8c0-1.58-0.39-2.54-2.44-2.54h-4.56c-2.05,0-2.44,0.96-2.44,2.54V7.17z"/>
	<path class="st0" d="M32.89,8.68h3.89c0.02,1.35,0.56,1.45,1.68,1.45h4.77c0.82,0,1.66-0.09,1.66-1.07c0-1.11-0.46-1.17-5.47-1.17
		c-5.85,0-6.52-0.7-6.52-3.82c0-2.3,0.21-4.07,5.12-4.07h5.44c4.49,0,4.91,1.52,4.91,3.75v0.4h-3.89c0-0.93-0.11-1.31-1.89-1.31
		h-4.31c-0.88,0-1.47,0.3-1.47,0.98c0,1.1,0.47,1.14,4.64,1.12c6.05-0.02,7.45,0.35,7.45,4.05c0,3.42-1.16,3.98-6.33,3.98h-4.72
		c-3.54,0-4.96-0.67-4.96-3.42V8.68z"/>
	<path class="st0" d="M63.82,0.14h5.07l6.98,12.69h-4.33l-1.21-2.24h-7.89l-1.14,2.24h-4.35L63.82,0.14z M63.89,7.85h4.98
		l-2.52-4.77L63.89,7.85z"/>
	<polygon class="st0" points="77.12,0.14 83.15,0.14 90.46,9.36 90.49,9.36 90.49,0.14 94.39,0.14 94.39,12.83 88.36,12.83 
		81.05,3.61 81.01,3.61 81.01,12.83 77.12,12.83 	"/>
	<path class="st0" d="M96.2,4.59c0-3.72,2.09-4.59,5.59-4.59h5.85c4.42,0,5.03,1.6,5.03,4.07v0.4h-3.82c0-1.26-0.72-1.42-1.96-1.42
		h-4.22c-1.96,0-2.47,0.47-2.47,2.65v1.58c0,2.17,0.51,2.65,2.47,2.65h4.15c1.02,0,2.03-0.16,2.03-1.38V8.17h-4.84V5.54h8.73v3.61
		c0,3.64-1.89,3.82-6.27,3.82h-4.68c-3.51,0-5.59-0.88-5.59-4.59V4.59z"/>
	<polygon class="st0" points="114.56,0.14 128.44,0.14 128.44,3.08 118.45,3.08 118.45,5.12 127.92,5.12 127.92,7.75 118.45,7.75 
		118.45,9.78 128.67,9.78 128.67,12.83 114.56,12.83 	"/>
	<polygon class="st0" points="130.4,0.14 134.29,0.14 134.29,9.57 143.04,9.57 143.04,12.83 130.4,12.83 	"/>
	<polygon class="st0" points="144.41,0.14 158.29,0.14 158.29,3.08 148.3,3.08 148.3,5.12 157.76,5.12 157.76,7.75 148.3,7.75 
		148.3,9.78 158.52,9.78 158.52,12.83 144.41,12.83 	"/>
	<path class="st0" d="M160.01,8.68h3.89c0.02,1.35,0.56,1.45,1.68,1.45h4.77c0.82,0,1.66-0.09,1.66-1.07c0-1.11-0.45-1.17-5.47-1.17
		c-5.85,0-6.52-0.7-6.52-3.82c0-2.3,0.21-4.07,5.12-4.07h5.44c4.49,0,4.91,1.52,4.91,3.75v0.4h-3.89c0-0.93-0.11-1.31-1.89-1.31
		h-4.31c-0.88,0-1.47,0.3-1.47,0.98c0,1.1,0.47,1.14,4.64,1.12c6.05-0.02,7.45,0.35,7.45,4.05c0,3.42-1.16,3.98-6.33,3.98h-4.72
		c-3.54,0-4.96-0.67-4.96-3.42V8.68z"/>
	<path class="st0" d="M190.95,0.14h5.07l6.98,12.69h-4.33l-1.21-2.24h-7.89l-1.14,2.24h-4.35L190.95,0.14z M191.02,7.85H196
		l-2.53-4.77L191.02,7.85z"/>
	<path class="st0" d="M204.25,0.14h10.6c3.7,0,4.59,1.86,4.59,4.35v1.09c0,1.89-0.83,4.07-3.58,4.07h-7.73v3.19h-3.89L204.25,0.14
		L204.25,0.14z M208.14,6.49h6.05c0.91,0,1.26-0.6,1.26-1.35V4.65c0-0.86-0.42-1.35-1.6-1.35h-5.71L208.14,6.49L208.14,6.49z"/>
	<path class="st0" d="M221.05,0.14h10.6c3.7,0,4.59,1.86,4.59,4.35v1.09c0,1.89-0.83,4.07-3.58,4.07h-7.73v3.19h-3.89L221.05,0.14
		L221.05,0.14z M224.94,6.49h6.05c0.91,0,1.26-0.6,1.26-1.35V4.65c0-0.86-0.42-1.35-1.6-1.35h-5.71V6.49z"/>
	<path class="st0" d="M242.17,0.14h5.07l6.98,12.69h-4.33l-1.21-2.24h-7.89l-1.14,2.24h-4.35L242.17,0.14z M242.24,7.85h4.98
		l-2.53-4.77L242.24,7.85z"/>
	<polygon class="st0" points="272.96,0.14 286.84,0.14 286.84,3.08 276.85,3.08 276.85,5.12 286.32,5.12 286.32,7.75 276.85,7.75 
		276.85,9.78 287.07,9.78 287.07,12.83 272.96,12.83 	"/>
	<polygon class="st0" points="288.8,0.14 292.69,0.14 292.69,9.57 301.44,9.57 301.44,12.83 288.8,12.83 	"/>
	<path class="st0" d="M255.51,0.14h11.75c3,0,3.8,1.49,3.8,3.77v0.81c0,1.7-0.39,2.7-2.17,3.12v0.04c1.16,0.21,2.12,0.72,2.12,2.81
		v2.16h-3.89v-1.52c0-1.33-0.39-1.77-1.6-1.77h-6.12v3.3h-3.89L255.51,0.14L255.51,0.14z M259.4,6.38h6.43
		c1.05,0,1.44-0.42,1.44-1.33V4.63c0-1.12-0.56-1.33-1.79-1.33h-6.08V6.38z"/>
</g>
</svg>
