<?xml version="1.0" encoding="utf-8"?>
<!-- Generator: Adobe Illustrator 24.1.2, SVG Export Plug-In . SVG Version: 6.00 Build 0)  -->
<svg version="1.1" id="Layer_1" xmlns="http://www.w3.org/2000/svg" xmlns:xlink="http://www.w3.org/1999/xlink" x="0px" y="0px"
	 width="309.6px" height="58.91px" viewBox="0 0 309.6 58.91" style="enable-background:new 0 0 309.6 58.91;" xml:space="preserve"
	>
<g>
	<polygon points="31.4,47.41 12.35,1.33 0,1.33 0,58.02 8.26,58.02 8.26,12.99 26.99,58.02 35.49,58.02 54.3,12.99 54.3,58.02 
		62.81,58.02 62.81,1.33 50.46,1.33 	"/>
	<path d="M145.92,24.08c-2.11-3.56-5.91-8.17-13.2-8.17c-10.77,0-18.63,8.51-18.63,21.38c0,13.12,7.05,21.62,17.9,21.62
		c8.1,0,12.07-5.58,14.17-9.14v8.25h8.34V1.33h-8.58L145.92,24.08L145.92,24.08z M134.43,51.3c-7.21,0-11.74-5.75-11.74-14.09
		c0-8.26,4.54-13.93,11.74-13.93s11.83,5.75,11.83,14.01C146.25,45.63,141.63,51.3,134.43,51.3z"/>
	<path d="M251.9,15.91c-12.47,0-20.25,8.66-20.25,21.54c0,12.96,7.69,21.46,20.25,21.46c12.56,0,20.25-8.51,20.25-21.46
		C272.14,24.57,264.37,15.91,251.9,15.91z M252.06,51.14c-7.69,0-11.82-5.34-11.82-13.69c0-8.26,4.05-13.77,11.58-13.77
		c7.61,0,11.74,5.51,11.74,13.77C263.56,45.79,259.51,51.14,252.06,51.14z"/>
	<path d="M181.22,15.91c-11.74,0-19.76,7.79-19.76,21.54c0,13.51,7.94,21.46,19.68,21.46c8.99,0,16.37-4.93,18.06-13.04h-7.8
		c-1.46,3.72-4.91,5.91-9.77,5.91c-7.21,0-11.74-4.7-12.01-11.99h29.85l0.14-3.56C199.61,23.76,192.4,15.91,181.22,15.91z
		 M169.97,33.56c0.57-6.56,4.69-10.53,11.09-10.53c6.48,0,10.09,4.13,10.09,10.53H169.97z"/>
	<path d="M302.22,15.91c-8.22,0-12.33,5.11-13.51,10.11v-9.44h-9.45v41.44h9.45V42.27c0-14.5,7.52-18.49,13.72-18.49
		c2.67,0,4.57,0.97,4.57,0.97l2.61-7.43C309.6,17.32,306.37,15.91,302.22,15.91z"/>
	<path d="M226.17,7.37c2.21,0,3.89,0.61,5.11,1.34l3.36-6.74C232.51,0.82,229.7,0,225.91,0c-9.43,0-15.24,5.56-15.24,13.92v2.65
		h-7.24v6.88h7.24v34.56h8.89V23.46h10.31v-6.88h-10.31v-1.9C219.56,10.11,221.76,7.37,226.17,7.37z"/>
	<path d="M90.4,15.78c-12.43,0-19.94,7.99-17.38,17.81l8.35-2.47c-1.55-5.56,3.32-8.2,9.28-8.2c4.48,0,7.71,2.24,7.71,5.72
		s-2.82,4.48-10.2,5.47c-11.77,1.66-17.74,5.06-17.74,13.18c0,7.46,6.13,11.52,14.17,11.52c8.29,0,12.35-4.39,13.76-6.88v6.05h8.7
		V29.62C107.06,20.25,100.26,15.78,90.4,15.78z M98.35,40.15c0,8.12-5.97,12.02-11.69,12.02c-3.81,0-6.96-1.66-6.96-5.31
		c0-3.65,2.98-5.47,9.78-6.71c3.56-0.66,7.44-1.4,8.87-4.02L98.35,40.15L98.35,40.15z"/>
</g>
</svg>
