<?xml version="1.0" encoding="utf-8"?>
<!-- Generator: Adobe Illustrator 24.1.2, SVG Export Plug-In . SVG Version: 6.00 Build 0)  -->
<svg version="1.1" id="Layer_1" xmlns="http://www.w3.org/2000/svg" xmlns:xlink="http://www.w3.org/1999/xlink" x="0px" y="0px"
	 width="302.28px" height="63.78px" viewBox="0 0 302.28 63.78" style="enable-background:new 0 0 302.28 63.78;"
	 xml:space="preserve">
<style type="text/css">
	.st0{fill:#CE0E2D;}
	.st1{fill:#FFFFFF;}
	.st2{fill:#231F20;}
</style>
<rect class="st0" width="63.78" height="63.78"/>
<path class="st1" d="M31.89,17.42c-12.01,0-21.26,6.19-21.26,14.47c0,7.99,8.95,14.47,21.26,14.47s21.26-6.49,21.26-14.47
	C53.15,23.6,43.96,17.42,31.89,17.42 M45.16,23.6c0.42,1.8-1.62,4.02-8.35,4.74c-0.42-4.56-1.8-8.41-4.02-9.19
	c2.82,0.06,5.65,0.54,8.35,1.5C43.48,21.56,44.92,22.64,45.16,23.6 M35.25,31.83c0,5.77-1.74,8.17-3.36,8.17
	c-1.62,0-3.36-2.4-3.36-8.17v-0.06c1.08,0.12,2.22,0.12,3.36,0.12C33.03,31.89,34.17,31.89,35.25,31.83L35.25,31.83 M31.89,28.65
	c-1.14,0-2.16,0-3.12-0.06c0.48-3.78,1.86-6.01,3.12-6.01c1.26,0,2.64,2.22,3.12,6.01C34.05,28.59,33.03,28.65,31.89,28.65
	 M18.62,23.66c0.24-0.96,1.68-2.1,3.96-2.94c2.7-0.96,5.53-1.44,8.41-1.5c-2.22,0.84-3.6,4.62-4.02,9.19
	C20.3,27.69,18.2,25.47,18.62,23.66 M13.75,31.41c0-2.28,0.78-4.5,2.22-6.31c0.18,3.24,4.56,5.65,10.81,6.49v0.24
	c0,7.81,1.98,11.95,4.2,12.79C21.5,44.26,13.75,38.44,13.75,31.41 M32.73,44.62c2.22-0.9,4.26-5.35,4.26-12.79v-0.24
	c6.25-0.84,10.63-3.24,10.81-6.49c1.44,1.74,2.28,4.02,2.22,6.31C50.03,38.44,42.28,44.32,32.73,44.62"/>
<path class="st2" d="M108.65,22.34l-6.01,20.6h-4.08l-4.38-15.07l-4.5,15.07h-4.08l-6.01-20.6h4.26l4.14,15.32l4.38-15.32h3.9
	l4.38,15.19l4.14-15.19H108.65z"/>
<path class="st2" d="M124.98,33.63v9.31h-3.6v-7.93c0-2.58-0.96-3.78-3-3.78c-2.22,0-3.66,1.5-3.66,3.9v7.81h-3.6V21.2h3.6v9.43
	c1.02-1.68,2.82-2.64,5.11-2.64C123.18,27.99,124.98,29.97,124.98,33.63z"/>
<path class="st2" d="M128.17,35.61c0-4.38,3.24-7.63,7.99-7.63s7.93,3.24,7.93,7.63s-3.24,7.63-7.93,7.63S128.17,40.06,128.17,35.61
	z M140.36,35.61c0-2.52-1.74-4.26-4.2-4.26c-2.46,0-4.26,1.74-4.26,4.26s1.74,4.26,4.26,4.26
	C138.62,39.94,140.36,38.14,140.36,35.61L140.36,35.61z"/>
<path class="st2" d="M147.32,38.92V21.2h3.6v17.18c0,1.2,0.48,1.68,1.38,1.68c0.48,0,0.9-0.12,1.38-0.3l0.42,2.88
	c-0.9,0.42-1.8,0.6-2.76,0.6C148.83,43.24,147.32,41.92,147.32,38.92z"/>
<path class="st2" d="M169.67,36.4h-10.75c0.24,2.46,1.92,3.78,4.5,3.78c1.68,0,3.36-0.54,4.74-1.56l0.9,2.82
	c-1.74,1.2-3.84,1.8-6.01,1.74c-4.68,0-7.75-3.24-7.75-7.57c0-4.5,3.18-7.63,7.39-7.63s7.03,3.12,7.03,7.87v0.54
	C169.73,36.4,169.67,36.4,169.67,36.4z M166,33.93c-0.24-1.86-1.62-3.12-3.36-3.12s-3.18,1.26-3.6,3.12H166z"/>
<path class="st2" d="M172.01,41.74l0.9-2.88c1.38,1.08,3.06,1.62,4.8,1.68c1.32,0,2.22-0.48,2.22-1.5c0-1.02-1.14-1.44-3.18-2.04
	c-2.34-0.78-4.32-1.62-4.32-4.32c0-2.94,2.28-4.68,5.71-4.68c1.68,0,3.3,0.42,4.8,1.26l-0.66,2.76c-1.26-0.78-2.7-1.26-4.14-1.32
	c-1.2,0-2.1,0.48-2.1,1.38c0,1.02,1.2,1.44,2.7,1.8c3,0.78,4.74,1.86,4.74,4.5c0,2.94-2.16,4.86-5.89,4.86
	C175.49,43.24,173.27,42.7,172.01,41.74z"/>
<path class="st2" d="M199.4,33.75V43h-3.6v-2.04c-1.2,1.56-3,2.4-4.98,2.34c-2.88,0-4.74-1.68-4.74-4.38c0-3.42,3-4.68,9.67-4.8
	v-0.3c0-1.74-1.02-2.82-3.24-2.82c-1.62,0.06-3.24,0.6-4.56,1.56l-0.84-2.88c1.8-1.08,3.9-1.68,6.07-1.62
	C196.93,27.99,199.4,29.73,199.4,33.75z M195.79,37.36v-1.02c-4.44,0.06-5.89,0.78-5.89,2.34c0,1.14,0.84,1.86,2.28,1.86
	C193.93,40.6,195.79,39.58,195.79,37.36z"/>
<path class="st2" d="M203.48,38.92V21.2h3.6v17.18c0,1.2,0.48,1.68,1.38,1.68c0.48,0,0.9-0.12,1.38-0.3l0.42,2.88
	c-0.9,0.42-1.8,0.6-2.76,0.6C204.98,43.24,203.48,41.92,203.48,38.92z"/>
<path class="st2" d="M225.88,36.4h-10.75c0.24,2.46,1.92,3.78,4.5,3.78c1.68,0,3.36-0.54,4.74-1.56l0.9,2.82
	c-1.74,1.2-3.84,1.8-6.01,1.74c-4.68,0-7.75-3.24-7.75-7.57c0-4.5,3.18-7.63,7.39-7.63s7.03,3.12,7.03,7.87L225.88,36.4z
	 M222.16,33.93c-0.24-1.86-1.62-3.12-3.36-3.12c-1.74,0-3.18,1.26-3.6,3.12H222.16z"/>
<path class="st2" d="M249.91,28.95c0,3.42-2.46,6.79-7.09,6.79h-3.12v7.21h-3.9v-20.6h7.03C247.5,22.34,249.91,25.34,249.91,28.95z
	 M245.82,28.95c0-2.4-1.62-3.3-3.78-3.3h-2.28v6.85h2.28C244.26,32.49,245.82,31.23,245.82,28.95L245.82,28.95z"/>
<path class="st2" d="M264.5,33.75V43h-3.6v-2.04c-1.2,1.56-3,2.4-4.92,2.34c-2.88,0-4.74-1.68-4.74-4.38c0-3.42,3-4.68,9.67-4.8
	v-0.3c0-1.74-1.02-2.82-3.24-2.82c-1.62,0.06-3.24,0.6-4.56,1.56l-0.84-2.88c1.8-1.08,3.9-1.68,6.07-1.62
	C262.04,27.99,264.5,29.73,264.5,33.75z M260.9,37.36v-1.02c-4.44,0.06-5.89,0.78-5.89,2.34c0,1.14,0.84,1.86,2.28,1.86
	C259.03,40.6,260.9,39.58,260.9,37.36L260.9,37.36z"/>
<path class="st2" d="M277.71,28.35l-0.6,3.48c-0.48-0.18-1.02-0.3-1.56-0.3c-2.28,0-3.36,1.62-3.36,4.5v6.91h-3.6V28.29h3.6v2.34
	c0.84-1.92,2.16-2.64,3.6-2.64C276.45,27.99,277.05,28.11,277.71,28.35z"/>
<path class="st2" d="M281.08,38.44v-7.09h-2.28v-3.06h2.28v-4.14l3.6-0.48v4.56h3.96v3.06h-3.96v6.61c0,1.38,0.66,2.04,1.74,2.04
	c0.9-0.06,1.74-0.3,2.52-0.78l0.6,2.94c-1.2,0.78-2.58,1.14-3.96,1.14C282.76,43.24,281.08,41.68,281.08,38.44z"/>
<path class="st2" d="M290.93,41.74l0.84-2.88c1.38,1.08,3.06,1.62,4.8,1.68c1.32,0,2.22-0.48,2.22-1.5s-1.14-1.44-3.18-2.04
	c-2.34-0.78-4.32-1.62-4.32-4.32c0-2.94,2.28-4.68,5.71-4.68c1.68,0,3.3,0.42,4.8,1.26l-0.66,2.76c-1.26-0.78-2.7-1.26-4.2-1.32
	c-1.2,0-2.1,0.48-2.1,1.38c0,1.02,1.2,1.44,2.7,1.8c3,0.78,4.74,1.86,4.74,4.5c0,2.94-2.16,4.86-5.89,4.86
	C294.35,43.24,292.13,42.7,290.93,41.74z"/>
</svg>
