<?xml version="1.0" encoding="utf-8"?>
<!-- Generator: Adobe Illustrator 24.1.2, SVG Export Plug-In . SVG Version: 6.00 Build 0)  -->
<svg version="1.1" id="Layer_1" xmlns="http://www.w3.org/2000/svg" xmlns:xlink="http://www.w3.org/1999/xlink" x="0px" y="0px"
	 width="302.3px" height="63.8px" viewBox="0 0 302.3 63.8" style="enable-background:new 0 0 302.3 63.8;" xml:space="preserve">
<style type="text/css">
	.st0{fill:#FFFFFF;}
	.st1{fill:#231F20;}
</style>
<rect width="63.8" height="63.8"/>
<path class="st0" d="M31.9,17.4c-12,0-21.3,6.2-21.3,14.5c0,8,8.9,14.5,21.3,14.5s21.3-6.5,21.3-14.5C53.2,23.6,44,17.4,31.9,17.4
	 M45.2,23.6c0.4,1.8-1.6,4-8.4,4.7c-0.4-4.6-1.8-8.4-4-9.2c2.8,0.1,5.7,0.5,8.4,1.5C43.5,21.6,44.9,22.6,45.2,23.6 M35.2,31.8
	c0,5.8-1.7,8.2-3.4,8.2c-1.6,0-3.4-2.4-3.4-8.2v-0.1c1.1,0.1,2.2,0.1,3.4,0.1C33,31.9,34.2,31.9,35.2,31.8L35.2,31.8 M31.9,28.6
	c-1.1,0-2.2,0-3.1-0.1c0.5-3.8,1.9-6,3.1-6s2.6,2.2,3.1,6C34,28.6,33,28.6,31.9,28.6 M18.6,23.7c0.2-1,1.7-2.1,4-2.9
	c2.7-1,5.5-1.4,8.4-1.5c-2.2,0.8-3.6,4.6-4,9.2C20.3,27.7,18.2,25.5,18.6,23.7 M13.8,31.4c0-2.3,0.8-4.5,2.2-6.3
	c0.2,3.2,4.6,5.6,10.8,6.5v0.2c0,7.8,2,11.9,4.2,12.8C21.5,44.3,13.8,38.4,13.8,31.4 M32.7,44.6C35,43.7,37,39.3,37,31.8v-0.2
	c6.2-0.8,10.6-3.2,10.8-6.5c1.4,1.7,2.3,4,2.2,6.3C50,38.4,42.3,44.3,32.7,44.6"/>
<path class="st1" d="M108.7,22.3l-6,20.6h-4.1l-4.4-15.1l-4.5,15.1h-4.1l-6-20.6h4.3L88,37.7l4.4-15.3h3.9l4.4,15.2l4.1-15.2
	C104.8,22.3,108.7,22.3,108.7,22.3z"/>
<path class="st1" d="M125,33.6v9.3h-3.6V35c0-2.6-1-3.8-3-3.8c-2.2,0-3.7,1.5-3.7,3.9v7.8h-3.6V21.2h3.6v9.4c1-1.7,2.8-2.6,5.1-2.6
	C123.2,28,125,30,125,33.6z"/>
<path class="st1" d="M128.2,35.6c0-4.4,3.2-7.6,8-7.6s7.9,3.2,7.9,7.6s-3.2,7.6-7.9,7.6S128.2,40.1,128.2,35.6z M140.4,35.6
	c0-2.5-1.7-4.3-4.2-4.3c-2.5,0-4.3,1.7-4.3,4.3s1.7,4.3,4.3,4.3C138.6,39.9,140.4,38.1,140.4,35.6L140.4,35.6z"/>
<path class="st1" d="M147.3,38.9V21.2h3.6v17.2c0,1.2,0.5,1.7,1.4,1.7c0.5,0,0.9-0.1,1.4-0.3l0.4,2.9c-0.9,0.4-1.8,0.6-2.8,0.6
	C148.8,43.2,147.3,41.9,147.3,38.9z"/>
<path class="st1" d="M169.7,36.4h-10.8c0.2,2.5,1.9,3.8,4.5,3.8c1.7,0,3.4-0.5,4.7-1.6l0.9,2.8c-1.7,1.2-3.8,1.8-6,1.7
	c-4.7,0-7.8-3.2-7.8-7.6c0-4.5,3.2-7.6,7.4-7.6s7,3.1,7,7.9L169.7,36.4C169.7,36.4,169.7,36.4,169.7,36.4z M166,33.9
	c-0.2-1.9-1.6-3.1-3.4-3.1s-3.2,1.3-3.6,3.1H166z"/>
<path class="st1" d="M172,41.7l0.9-2.9c1.4,1.1,3.1,1.6,4.8,1.7c1.3,0,2.2-0.5,2.2-1.5s-1.1-1.4-3.2-2c-2.3-0.8-4.3-1.6-4.3-4.3
	c0-2.9,2.3-4.7,5.7-4.7c1.7,0,3.3,0.4,4.8,1.3l-0.7,2.8c-1.3-0.8-2.7-1.3-4.1-1.3c-1.2,0-2.1,0.5-2.1,1.4c0,1,1.2,1.4,2.7,1.8
	c3,0.8,4.7,1.9,4.7,4.5c0,2.9-2.2,4.9-5.9,4.9C175.5,43.2,173.3,42.7,172,41.7z"/>
<path class="st1" d="M199.4,33.8V43h-3.6v-2c-1.2,1.6-3,2.4-5,2.3c-2.9,0-4.7-1.7-4.7-4.4c0-3.4,3-4.7,9.7-4.8v-0.3
	c0-1.7-1-2.8-3.2-2.8c-1.6,0.1-3.2,0.6-4.6,1.6l-0.8-2.9c1.8-1.1,3.9-1.7,6.1-1.6C196.9,28,199.4,29.7,199.4,33.8z M195.8,37.4v-1
	c-4.4,0.1-5.9,0.8-5.9,2.3c0,1.1,0.8,1.9,2.3,1.9C193.9,40.6,195.8,39.6,195.8,37.4z"/>
<path class="st1" d="M203.5,38.9V21.2h3.6v17.2c0,1.2,0.5,1.7,1.4,1.7c0.5,0,0.9-0.1,1.4-0.3l0.4,2.9c-0.9,0.4-1.8,0.6-2.8,0.6
	C205,43.2,203.5,41.9,203.5,38.9z"/>
<path class="st1" d="M225.9,36.4h-10.8c0.2,2.5,1.9,3.8,4.5,3.8c1.7,0,3.4-0.5,4.7-1.6l0.9,2.8c-1.7,1.2-3.8,1.8-6,1.7
	c-4.7,0-7.8-3.2-7.8-7.6c0-4.5,3.2-7.6,7.4-7.6s7,3.1,7,7.9L225.9,36.4z M222.2,33.9c-0.2-1.9-1.6-3.1-3.4-3.1s-3.2,1.3-3.6,3.1
	H222.2z"/>
<path class="st1" d="M249.9,29c0,3.4-2.5,6.8-7.1,6.8h-3.1V43h-3.9V22.4h7C247.5,22.3,249.9,25.3,249.9,29z M245.8,29
	c0-2.4-1.6-3.3-3.8-3.3h-2.3v6.8h2.3C244.3,32.5,245.8,31.2,245.8,29L245.8,29z"/>
<path class="st1" d="M264.5,33.8V43h-3.6v-2c-1.2,1.6-3,2.4-4.9,2.3c-2.9,0-4.7-1.7-4.7-4.4c0-3.4,3-4.7,9.7-4.8v-0.3
	c0-1.7-1-2.8-3.2-2.8c-1.6,0.1-3.2,0.6-4.6,1.6l-0.8-2.9c1.8-1.1,3.9-1.7,6.1-1.6C262,28,264.5,29.7,264.5,33.8z M260.9,37.4v-1
	c-4.4,0.1-5.9,0.8-5.9,2.3c0,1.1,0.8,1.9,2.3,1.9C259,40.6,260.9,39.6,260.9,37.4L260.9,37.4z"/>
<path class="st1" d="M277.7,28.4l-0.6,3.5c-0.5-0.2-1-0.3-1.6-0.3c-2.3,0-3.4,1.6-3.4,4.5v6.9h-3.6V28.3h3.6v2.3
	c0.8-1.9,2.2-2.6,3.6-2.6C276.5,28,277,28.1,277.7,28.4z"/>
<path class="st1" d="M281.1,38.4v-7.1h-2.3v-3.1h2.3v-4.1l3.6-0.5v4.6h4v3.1h-4v6.6c0,1.4,0.7,2,1.7,2c0.9-0.1,1.7-0.3,2.5-0.8
	l0.6,2.9c-1.2,0.8-2.6,1.1-4,1.1C282.8,43.2,281.1,41.7,281.1,38.4z"/>
<path class="st1" d="M290.9,41.7l0.8-2.9c1.4,1.1,3.1,1.6,4.8,1.7c1.3,0,2.2-0.5,2.2-1.5s-1.1-1.4-3.2-2c-2.3-0.8-4.3-1.6-4.3-4.3
	c0-2.9,2.3-4.7,5.7-4.7c1.7,0,3.3,0.4,4.8,1.3l-0.7,2.8c-1.3-0.8-2.7-1.3-4.2-1.3c-1.2,0-2.1,0.5-2.1,1.4c0,1,1.2,1.4,2.7,1.8
	c3,0.8,4.7,1.9,4.7,4.5c0,2.9-2.2,4.9-5.9,4.9C294.4,43.2,292.1,42.7,290.9,41.7z"/>
</svg>
